<svg version="1.1" id="Ebene_1" xmlns="http://www.w3.org/2000/svg" x="0" y="0" width="376.768" height="112.78" viewBox="0 0 376.768 112.78" xml:space="preserve"><g fill="#FFF"><path d="M53.322 0h18.812c7.796 0 13.388 2.796 16.439 9.321 2.458 5.169 2.712 17.371 2.712 19.32 0 13.05-1.187 20.591-3.729 24.659-3.305 5.254-9.491 7.88-20.168 7.88H53.322V0zm7.796 54.402h7.372c10.847 0 14.829-4.068 14.829-18.304V23.727c0-12.372-3.813-16.948-11.948-16.948H61.118v47.623z"/><path d="M126.197 54.996h-.169c-2.119 4.915-5.424 7.033-10.762 7.033-9.067 0-11.694-5.847-11.694-14.067 0-12.965 12.711-13.558 22.456-13.304.169-5.677.254-11.863-7.203-11.863-4.661 0-7.118 3.136-6.695 7.627h-7.542c.339-9.576 5.423-12.881 14.49-12.881 11.016 0 13.897 5.678 13.897 12.881v20.591c0 3.39.338 6.864.847 10.168h-7.626v-6.185zM110.52 48.47c0 4.152 2.034 7.881 6.694 7.881 4.237 0 9.491-2.627 8.813-16.439-6.609.085-15.507-.509-15.507 8.558z"/><path d="M147.297 18.388v-8.22l6.948-3.135v11.355h9.321v5.254h-9.321v26.184c0 2.711 0 6.186 6.355 6.186.509 0 1.61-.17 3.135-.339v5.338c-2.288.17-4.576.679-6.864.679-6.609 0-9.575-2.712-9.575-7.627V23.642h-7.034v-5.254h7.035z"/><path d="M192.123 54.996h-.168c-2.119 4.915-5.424 7.033-10.762 7.033-9.067 0-11.694-5.847-11.694-14.067 0-12.965 12.711-13.558 22.457-13.304.168-5.677.253-11.863-7.203-11.863-4.661 0-7.118 3.136-6.695 7.627h-7.541c.338-9.576 5.423-12.881 14.49-12.881 11.016 0 13.897 5.678 13.897 12.881v20.591c0 3.39.339 6.864.848 10.168h-7.627v-6.185zm-15.677-6.526c0 4.152 2.034 7.881 6.694 7.881 4.237 0 9.491-2.627 8.813-16.439-6.609.085-15.507-.509-15.507 8.558z"/><path d="M211.104 34.828h18.642v6.525h-18.642v-6.525z"/><path d="M255.253 0h9.913l19.915 61.181h-8.729l-4.406-14.575h-23.642l-4.575 14.575h-7.882L255.253 0zm4.745 7.203h-.169l-9.576 32.624h19.574l-9.829-32.624z"/><path d="M293.215 61.181V0h7.795v54.402h22.455v6.779h-30.25z"/></g><path fill="#FFF" d="M188.377 103.976c-73.158 0-139.516-7.082-188.377-18.585 42.359 16.593 110.936 27.389 188.38 27.389 77.448 0 146.029-10.796 188.387-27.393-48.862 11.503-115.222 18.589-188.39 18.589z"/></svg>